<svg width="20" height="20" viewBox="0 0 20 20" fill="none" xmlns="http://www.w3.org/2000/svg">
<path d="M2.61719 0.0740776C1.875 0.312359 1.30469 0.902203 1.11719 1.62877C1.0625 1.8397 1.05469 2.61314 1.05469 8.70298C1.05469 13.5155 1.06641 15.6053 1.09766 15.7499C1.17578 16.121 1.39062 16.5077 1.67578 16.7928C1.91016 17.0233 2.17578 17.1874 4.35547 18.4452C6.09375 19.4413 6.85156 19.8592 7.04688 19.9178C7.36719 20.0155 7.92188 20.0272 8.24219 19.9413C8.94531 19.7538 9.51562 19.2264 9.75781 18.5389C9.84766 18.2928 9.85938 18.1835 9.875 17.5467L9.89062 16.8358H11.5391C12.5391 16.8358 13.2812 16.8202 13.4219 16.7928C13.5469 16.7694 13.8008 16.6835 13.9805 16.5936C14.5586 16.3163 14.9688 15.8124 15.1367 15.1756C15.1836 14.9881 15.1953 14.6756 15.1953 13.4881C15.1953 12.1327 15.1914 12.0194 15.1211 11.8827C15.0312 11.703 14.9414 11.621 14.7539 11.5428C14.4219 11.4061 13.9961 11.5467 13.8164 11.8553C13.7852 11.91 13.7617 12.3866 13.75 13.3788C13.7266 14.9999 13.7344 14.9569 13.4258 15.2108L13.2734 15.3319L11.5781 15.3436L9.88672 15.3553L9.875 10.3631L9.86328 5.37095L9.77734 5.11314C9.66406 4.78892 9.44141 4.44517 9.19531 4.2147C8.98047 4.01939 8.83594 3.92955 6.34766 2.49986C5.40234 1.95689 4.61328 1.49595 4.58984 1.47642C4.57031 1.45689 6.50391 1.44908 8.89062 1.45298L13.2266 1.4647L13.3906 1.57408C13.4805 1.63267 13.5938 1.75377 13.6406 1.84752C13.7305 2.00767 13.7305 2.04283 13.75 3.61314C13.7617 4.72642 13.7852 5.23814 13.8164 5.29283C13.8398 5.3358 13.9102 5.41783 13.9727 5.47642C14.2812 5.76939 14.7969 5.7147 15.0664 5.36314L15.1758 5.22252L15.1875 3.57017C15.1992 1.73423 15.1875 1.60533 14.9531 1.15611C14.7852 0.839703 14.3438 0.39439 14.043 0.245953C13.5273 -0.0157661 13.9297 -0.000141144 8.10938 0.00376511C3.17188 0.00376511 2.81641 0.00767136 2.61719 0.0740776Z" fill="url(#paint0_linear_183_252)"/>
<path d="M15.8672 5.74617C15.6602 5.85164 15.5156 6.05476 15.4844 6.29695C15.4414 6.60164 15.5156 6.73445 15.9883 7.21492L16.418 7.65242L13.707 7.66414C10.7109 7.67586 10.875 7.66414 10.6523 7.92586C10.3477 8.28914 10.457 8.85945 10.8672 9.05867C11.0391 9.1407 11.0703 9.1407 13.7305 9.1407H16.418L15.9883 9.58211C15.543 10.0352 15.4687 10.1641 15.4687 10.4493C15.4687 10.6016 15.5898 10.8555 15.7148 10.9727C15.8633 11.1095 16.1562 11.1759 16.3906 11.1251C16.5742 11.086 16.6367 11.0313 17.6875 9.98445C18.2969 9.38289 18.8281 8.82039 18.8711 8.74226C18.9687 8.55476 18.9687 8.27351 18.8672 8.07039C18.7617 7.84773 16.7109 5.80476 16.5156 5.72273C16.3125 5.6407 16.0664 5.64851 15.8672 5.74617Z" fill="url(#paint1_linear_183_252)"/>
<defs>
<linearGradient id="paint0_linear_183_252" x1="1.05469" y1="10.0006" x2="15.1953" y2="10.0006" gradientUnits="userSpaceOnUse">
<stop offset="0.0144231" stop-color="#8A6FDC"/>
<stop offset="0.490385" stop-color="#00E5FF"/>
<stop offset="1" stop-color="#8A6FDC"/>
</linearGradient>
<linearGradient id="paint1_linear_183_252" x1="10.4781" y1="8.40432" x2="18.9439" y2="8.40432" gradientUnits="userSpaceOnUse">
<stop offset="0.0144231" stop-color="#8A6FDC"/>
<stop offset="0.490385" stop-color="#00E5FF"/>
<stop offset="1" stop-color="#8A6FDC"/>
</linearGradient>
</defs>
</svg>
