<svg width="20" height="20" viewBox="0 0 20 20" fill="none" xmlns="http://www.w3.org/2000/svg">
<path d="M9.04297 0.0778322C8.08594 0.273145 7.24609 0.722363 6.57031 1.40205C6.16016 1.81221 5.87891 2.21064 5.625 2.7458C5.28906 3.44502 5.15625 4.05049 5.15625 4.85908C5.15625 6.9333 6.48047 8.77315 8.44531 9.4333C10.2383 10.031 12.1875 9.5583 13.4961 8.19893C14.3789 7.28096 14.8438 6.12861 14.8438 4.84736C14.8438 3.51143 14.3477 2.3083 13.4141 1.38252C12.7227 0.69502 11.8438 0.241895 10.8633 0.058301C10.4062 -0.0237303 9.5 -0.0159178 9.04297 0.0778322Z" fill="#F5F7FA"/>
<path d="M4.92188 10.2069C4.52344 10.3437 4.3086 10.4921 3.88672 10.914C2.80469 12.0038 2.03907 13.3437 1.66407 14.8085C1.4375 15.6835 1.39063 16.1249 1.39063 17.3437C1.38672 18.371 1.39063 18.4296 1.47657 18.6718C1.71094 19.328 2.25782 19.8241 2.89063 19.9569C3.05079 19.9921 4.85157 19.9999 10.1367 19.9921L17.168 19.9804L17.4688 19.8359C17.9844 19.5898 18.3867 19.1366 18.5391 18.6249C18.6055 18.4101 18.6133 18.2538 18.6094 17.3241C18.6094 16.1523 18.5586 15.6874 18.3555 14.8827C18.0078 13.4921 17.3477 12.2655 16.3555 11.1601C15.6523 10.3749 15.1836 10.1171 14.4688 10.1171C14.082 10.1171 13.75 10.2109 13.418 10.414C12.8594 10.7538 12.2852 11.0038 11.7383 11.1523C9.95704 11.6288 8.21094 11.3827 6.60157 10.4335C6.41797 10.3241 6.16407 10.2109 6.03516 10.1757C5.69532 10.0898 5.23047 10.1015 4.92188 10.2069Z" fill="#F5F7FA"/>
</svg>
