<svg width="20" height="20" viewBox="0 0 20 20" fill="none" xmlns="http://www.w3.org/2000/svg">
<path d="M5.71094 1.26953C5.57812 1.30078 5.33203 1.38672 5.16406 1.46875C4.875 1.60547 4.80078 1.67578 3.19922 3.27734C1.72656 4.75391 1.52344 4.96875 1.41406 5.19531C1.16016 5.71875 1.17188 5.41797 1.17188 10.8516C1.17188 16.332 1.15625 16.0039 1.43359 16.5312C1.6875 17.0156 2.19922 17.4453 2.73047 17.6289L2.98828 17.7148L7.49219 17.7266C9.96484 17.7305 11.9922 17.7266 11.9922 17.7148C11.9922 17.707 11.9375 17.6094 11.875 17.5078C11.668 17.1719 11.2617 16.2852 11.0938 15.8008C10.8164 15.0039 10.5547 13.8984 10.4883 13.2422C10.4219 12.5938 10.7383 11.8867 11.2656 11.5273C11.4492 11.4023 14.4219 9.85547 14.6758 9.75391C14.7695 9.71875 14.9414 9.67578 15.0586 9.66406L15.2734 9.63672V6.42969C15.2734 3.74219 15.2617 3.18359 15.2148 2.97656C15.0156 2.14062 14.3047 1.44922 13.457 1.26953C13.0664 1.1875 6.08984 1.1875 5.71094 1.26953ZM10.1367 4.41016C10.4062 4.53516 10.5859 4.80859 10.5859 5.08984C10.5859 5.26953 10.4375 5.53906 10.2617 5.67969L10.1094 5.80078H8.22266H6.33594L6.18359 5.67969C6.00781 5.53906 5.85938 5.26953 5.85938 5.08984C5.85938 4.80859 6.03906 4.53516 6.30859 4.41016C6.45312 4.34375 6.59766 4.33594 8.22266 4.33594C9.84766 4.33594 9.99219 4.34375 10.1367 4.41016ZM11.8633 7.91406C12.0742 8.08594 12.1641 8.25781 12.1641 8.49609C12.1641 8.83594 11.9492 9.12109 11.6172 9.21875C11.5078 9.25 10.5391 9.25781 8.14453 9.25C4.95703 9.23828 4.81641 9.23438 4.67188 9.16406C4.50391 9.07812 4.32031 8.82031 4.28125 8.61328C4.22656 8.32812 4.41406 7.97656 4.69531 7.83594C4.8125 7.78125 5.16406 7.77734 8.26953 7.78516L11.7109 7.79297L11.8633 7.91406ZM7.23438 11.2109C7.42578 11.2656 7.60156 11.418 7.70312 11.6133C7.87109 11.9453 7.71875 12.4023 7.37109 12.5859C7.21484 12.6719 7.16406 12.6758 6.12109 12.6875C4.85156 12.7031 4.71094 12.6797 4.48047 12.4258C4.13672 12.0469 4.23828 11.5 4.69531 11.2734L4.89844 11.1719H5.99219C6.62891 11.1719 7.15234 11.1875 7.23438 11.2109Z" fill="#F5F7FA"/>
<path d="M15.1953 11.1602C14.9961 11.2344 12.1055 12.75 12.0508 12.8125C11.9648 12.9102 11.9687 13.0977 12.0664 13.6328C12.5039 15.9883 13.4492 17.6641 14.8242 18.5196C15.25 18.7813 15.3789 18.8203 15.5977 18.7344C15.8789 18.6289 16.457 18.2227 16.7695 17.918C17.7266 16.9844 18.4492 15.418 18.7656 13.5743C18.8594 13.0469 18.8516 12.9024 18.7227 12.7852C18.582 12.6641 15.4414 11.1328 15.3359 11.1368C15.2891 11.1368 15.2266 11.1485 15.1953 11.1602Z" fill="#F5F7FA"/>
</svg>
