<svg width="20" height="20" viewBox="0 0 20 20" fill="none" xmlns="http://www.w3.org/2000/svg">
<path d="M9.61719 2.85522C9.46094 2.93335 9.33203 3.11694 7.89453 5.26929C7.03906 6.55054 6.27734 7.65601 6.19922 7.72241C6.0625 7.84351 5.84766 7.92944 5.68359 7.92944C5.44531 7.92944 5.23047 7.78882 3.41016 6.42554C1.79297 5.2146 1.48828 4.99975 1.34375 4.97632C0.953125 4.91772 0.625 5.20288 0.625 5.5935C0.625 5.72241 1.60938 12.2654 1.73828 12.9998L1.76172 13.1248H10H18.2344L18.2578 13.0193C18.2695 12.9568 18.5273 11.3005 18.832 9.33569C19.2148 6.8396 19.375 5.69507 19.3672 5.53491C19.3516 5.3435 19.332 5.29272 19.2188 5.17554C19.0586 5.00757 18.875 4.94507 18.6562 4.97632C18.5117 4.99975 18.207 5.2146 16.5898 6.42554C14.7695 7.78882 14.5547 7.92944 14.3164 7.92944C14.1523 7.92944 13.9375 7.84351 13.8008 7.72241C13.7227 7.65601 12.9805 6.57788 12.1484 5.33179C11.3164 4.08569 10.5859 3.01929 10.5234 2.96069C10.4609 2.9021 10.3594 2.83569 10.3008 2.81616C10.1172 2.74585 9.80078 2.76538 9.61719 2.85522Z" fill="#F5F7FA"/>
<path d="M1.75781 15.4723C1.75781 16.1676 1.77344 16.5465 1.80469 16.6559C1.86719 16.859 2.13281 17.1285 2.33203 17.1871C2.4375 17.2184 4.58984 17.2262 10.0859 17.2184L17.6875 17.2067L17.8594 17.0895C17.9688 17.0113 18.0625 16.8981 18.1367 16.7613L18.2422 16.5465V15.4996V14.4527H10H1.75781V15.4723Z" fill="#F5F7FA"/>
</svg>
