<svg width="30" height="30" viewBox="0 0 30 30" fill="none" xmlns="http://www.w3.org/2000/svg">
<path d="M21.9727 1.07258C21.8614 1.1429 21.7266 1.28352 21.6739 1.37727C21.6211 1.47688 21.4512 2.10383 21.2989 2.78352C20.9356 4.40657 20.959 4.24837 21.0821 4.14876C21.4864 3.80305 23.209 2.34407 23.3614 2.22102C23.4668 2.13313 23.5371 2.0511 23.5254 2.03938C23.5079 2.02766 23.4844 1.91047 23.461 1.78157C23.3789 1.24251 23.0332 0.937819 22.5 0.937819C22.2481 0.937819 22.1192 0.972975 21.9727 1.07258Z" fill="white"/>
<path d="M10.9571 5.71253C5.75983 6.49768 1.74616 10.5524 1.02546 15.7379C0.902411 16.6168 0.931708 18.5621 1.07819 19.3649C1.2071 20.0621 1.48835 21.0875 1.51179 20.9645C1.53522 20.8532 6.14069 16.8981 6.22272 16.9215C6.25202 16.9274 6.26374 16.9157 6.24616 16.8864C6.211 16.8219 6.53327 16.5172 6.586 16.5641C6.60358 16.5875 6.62116 16.5641 6.62116 16.5231C6.62116 16.4821 6.63874 16.4586 6.65632 16.4821C6.6739 16.4996 6.76179 16.441 6.84382 16.3473C6.93171 16.2535 8.05671 15.2809 9.34577 14.1793L11.6895 12.1813L11.7364 11.818C11.795 11.3844 11.918 11.15 12.1934 10.9684C12.3692 10.8453 12.4454 10.8336 12.8028 10.8571L13.213 10.8805L14.2091 10.0309C14.7598 9.56214 15.2169 9.16956 15.2286 9.1637C15.2344 9.15784 15.1876 9.08753 15.1173 9.01136C15.0528 8.93519 14.9122 8.70667 14.8126 8.50745C14.461 7.79261 14.5255 6.87268 14.9708 6.21058C15.088 6.04065 15.17 5.88831 15.1524 5.87659C15.1407 5.86487 14.9239 5.81214 14.6719 5.76526C14.004 5.63636 11.6895 5.60706 10.9571 5.71253Z" fill="white"/>
<path d="M18.4512 6.1582C18.375 6.18164 17.9063 6.28711 17.4141 6.39258C16.4414 6.60352 16.2305 6.69141 16.0547 6.98438C15.8145 7.37695 15.9727 8.20312 16.2832 8.20312C16.3184 8.20312 16.8985 7.72852 17.5723 7.1543C18.7149 6.17578 18.8262 6.05273 18.4512 6.1582Z" fill="white"/>
<path d="M22.2716 3.13527C21.6153 3.69777 21.0469 4.14308 21.0177 4.11964C20.9825 4.10207 20.9766 4.11378 21.0001 4.14894C21.0235 4.18996 21.0118 4.21925 20.9766 4.21925C20.9415 4.21925 20.9239 4.24269 20.9473 4.27199C20.9649 4.30128 20.9532 4.3423 20.918 4.36574C20.8887 4.38332 20.8594 4.45363 20.8594 4.51808C20.8594 4.57668 20.836 4.62941 20.8067 4.62941C20.7774 4.62941 20.7247 4.70558 20.6837 4.79933C20.5899 5.02785 20.0216 5.56105 19.6583 5.76613C19.3946 5.91847 19.0723 6.03566 18.8848 6.04738C18.8438 6.05324 18.8087 6.08253 18.8087 6.11183C18.8087 6.14113 18.7677 6.14699 18.7149 6.12941C18.668 6.11183 18.6387 6.11769 18.6563 6.14699C18.6973 6.20558 16.3829 8.20363 16.2774 8.20363C16.1192 8.20949 16.5645 8.42628 16.8458 8.48488C18.9727 8.93605 19.5704 9.12355 20.0333 9.49269C20.6954 10.0142 20.8887 10.4302 21.2755 12.1118C21.4337 12.815 21.5977 13.4653 21.6329 13.5591C21.668 13.647 21.8028 13.7993 21.9317 13.8931C22.3536 14.1978 23.0274 14.0982 23.2969 13.6821C23.3497 13.6001 23.5372 12.9204 23.7071 12.1704C24.0821 10.5708 24.2286 10.2193 24.7208 9.72121C25.2188 9.22902 25.5762 9.07667 27.17 8.71339C27.9141 8.53761 28.5938 8.35597 28.6817 8.29738C29.1973 7.95753 29.1973 7.04347 28.6817 6.70363C28.5938 6.64503 27.9141 6.46339 27.17 6.28761C25.6466 5.93605 25.2598 5.78371 24.7794 5.34425C24.2286 4.84035 24.0352 4.3716 23.6427 2.56105C23.5899 2.31496 23.5255 2.10988 23.502 2.10988C23.4844 2.11574 22.9278 2.57277 22.2716 3.13527Z" fill="white"/>
<path d="M14.209 10.0256C13.4649 10.6701 13.1543 10.8986 13.084 10.8693C12.9493 10.8225 13.0313 10.8986 13.1895 10.9807C13.3301 11.051 13.5176 11.3674 13.5586 11.6017C13.5703 11.6838 13.5879 12.7971 13.5879 14.0744L13.5938 16.4006L16.043 16.4182C18.3868 16.4357 18.4922 16.4416 18.6914 16.5588C19.3184 16.9279 19.3184 17.76 18.6914 18.1291C18.4922 18.2463 18.3868 18.2521 16.043 18.2697L13.5996 18.2873L13.5821 20.7307C13.5645 23.0744 13.5586 23.1799 13.4414 23.3791C13.0723 24.006 12.2403 24.006 11.8711 23.3791C11.7539 23.1799 11.7481 23.0744 11.7305 20.7307L11.7129 18.2873L9.26956 18.2697C6.8848 18.2521 6.82034 18.2463 6.58597 18.1232C6.39847 18.0236 6.31644 17.924 6.21683 17.6955C6.06449 17.3381 6.09378 17.0744 6.31644 16.799C6.41019 16.6818 6.35159 16.7228 6.15238 16.9045C5.97659 17.0685 4.85745 18.0236 3.67386 19.0373C1.22464 21.1291 1.42386 20.8596 1.72855 21.6506C2.37308 23.3439 3.61527 25.0783 5.06253 26.3029C6.28128 27.3342 8.15628 28.3303 9.46292 28.6467C9.59183 28.676 9.76175 28.7228 9.84378 28.7404C9.92581 28.7639 9.96097 28.758 9.92581 28.7287C9.8848 28.6994 12.4571 26.4611 17.0743 22.5178C21.5332 18.7092 24.2989 16.383 24.3282 16.424C24.3692 16.4943 24.3516 16.2717 24.2285 15.4221C24.1875 15.1232 24.1407 14.8654 24.1231 14.8478C24.1114 14.8361 23.959 14.9123 23.7891 15.0295C22.8399 15.6682 21.5801 15.5158 20.8067 14.6779C20.4375 14.2795 20.3145 13.9455 19.9805 12.4865C19.67 11.1154 19.5528 10.799 19.2364 10.5705C18.9375 10.3537 18.8321 10.3127 17.6543 10.049C16.084 9.69745 15.8789 9.62714 15.5332 9.36933L15.2403 9.14667L14.209 10.0256Z" fill="white"/>
<path d="M9.20511 14.3027C7.84573 15.4688 6.73831 16.4238 6.75003 16.4297C6.76175 16.4297 7.88089 16.4297 9.24612 16.418L11.7188 16.4004V14.291C11.7188 13.1367 11.7129 12.1875 11.7012 12.1875C11.6895 12.1875 10.5703 13.1426 9.20511 14.3027Z" fill="white"/>
<path d="M24.3165 16.2483C24.3165 16.2952 21.0645 19.1077 17.0918 22.5061C11.045 27.6741 9.87895 28.6936 9.95513 28.7463C10.0079 28.7815 10.3243 28.8635 10.6641 28.9221C11.4317 29.0627 13.7696 29.0803 14.4727 28.9573C18.3692 28.2659 21.4278 26.0159 23.1739 22.5647C23.6602 21.6038 24 20.5666 24.2344 19.3362C24.3282 18.8616 24.4219 16.1721 24.3458 16.1721C24.3282 16.1721 24.3165 16.2073 24.3165 16.2483Z" fill="white"/>
</svg>
