<svg width="25" height="25" viewBox="0 0 25 25" fill="none" xmlns="http://www.w3.org/2000/svg">
<g clip-path="url(#clip0_84_21)">
<path d="M11.8408 0.0683594C11.2354 0.268555 11.3525 0.15625 5.82031 5.67871C2.91016 8.58398 0.458986 11.0742 0.366213 11.2109C-0.00488084 11.7627 -0.112303 12.6025 0.0976582 13.2373C0.415041 14.1797 1.16699 14.7363 2.2461 14.8242L2.63184 14.8584L2.64649 18.8428C2.66113 22.749 2.66602 22.832 2.76367 23.0957C3.12988 24.0625 3.74024 24.6582 4.63379 24.9219C4.86328 24.9902 5.22949 25 7.2461 25C9.50196 25 9.59961 24.9951 9.75586 24.9023C9.84375 24.8486 9.95606 24.7363 10.0098 24.6484C10.1025 24.4922 10.1074 24.3945 10.1074 21.3867C10.1074 19.2725 10.127 18.2227 10.1611 18.0908C10.2441 17.7979 10.4736 17.5 10.7324 17.3486L10.9619 17.2119H12.5049H14.0479L14.2871 17.3584C14.5557 17.5244 14.8096 17.9004 14.8633 18.1982C14.8779 18.3008 14.8926 19.751 14.8926 21.4258C14.8926 24.7217 14.8828 24.5947 15.1611 24.8535L15.293 24.9756L17.6416 24.9902C19.2139 25 20.0781 24.9854 20.249 24.9512C20.9229 24.8096 21.7041 24.2139 22.0117 23.6084C22.3535 22.9248 22.334 23.2031 22.3535 18.8184L22.3682 14.8535L22.7686 14.8193C23.75 14.7363 24.3945 14.3066 24.7998 13.4766C24.9707 13.1152 24.9756 13.1006 24.9756 12.5C24.9756 11.8945 24.9756 11.8848 24.79 11.499C24.6045 11.1084 24.5996 11.1035 19.248 5.75195C13.8916 0.395508 13.8916 0.395508 13.501 0.209961C13.1299 0.0341797 13.0811 0.0244141 12.5732 0.0146484C12.2266 0.00488281 11.9678 0.0244141 11.8408 0.0683594Z" fill="white"/>
</g>
<defs>
<clipPath id="clip0_84_21">
<rect width="25" height="25" fill="white"/>
</clipPath>
</defs>
</svg>
