<svg width="25" height="25" viewBox="0 0 25 25" fill="none" xmlns="http://www.w3.org/2000/svg">
<path d="M11.3037 0.0969849C10.1074 0.341125 9.05762 0.902649 8.21289 1.75226C7.7002 2.26495 7.34863 2.763 7.03125 3.43195C6.61133 4.30597 6.44531 5.06281 6.44531 6.07355C6.44531 8.66632 8.10059 10.9661 10.5566 11.7913C12.7979 12.5384 15.2344 11.9476 16.8701 10.2484C17.9736 9.10089 18.5547 7.66046 18.5547 6.0589C18.5547 4.38898 17.9346 2.88507 16.7676 1.72784C15.9033 0.868469 14.8047 0.302063 13.5791 0.0725708C13.0078 -0.0299683 11.875 -0.0202026 11.3037 0.0969849Z" fill="white"/>
<path d="M6.15235 12.7583C5.6543 12.9292 5.38575 13.1147 4.8584 13.642C3.50586 15.0044 2.54883 16.6792 2.08008 18.5102C1.79688 19.604 1.73829 20.1557 1.73829 21.6792C1.7334 22.9633 1.73829 23.0366 1.84571 23.3393C2.13868 24.1596 2.82227 24.7797 3.61329 24.9458C3.81348 24.9897 6.06446 24.9995 12.6709 24.9897L21.46 24.9751L21.8359 24.7944C22.4805 24.4868 22.9834 23.9204 23.1738 23.2807C23.2568 23.0122 23.2666 22.8169 23.2617 21.6547C23.2617 20.1899 23.1982 19.6088 22.9443 18.603C22.5098 16.8647 21.6846 15.3315 20.4443 13.9497C19.5654 12.9682 18.9795 12.646 18.0859 12.646C17.6025 12.646 17.1875 12.7631 16.7725 13.017C16.0742 13.4419 15.3565 13.7544 14.6729 13.9399C12.4463 14.5356 10.2637 14.228 8.25196 13.0415C8.02247 12.9047 7.70508 12.7631 7.54395 12.7192C7.11915 12.6118 6.53809 12.6264 6.15235 12.7583Z" fill="white"/>
</svg>
