<svg width="27" height="21" viewBox="0 0 27 21" fill="none" xmlns="http://www.w3.org/2000/svg">
<path d="M0.306673 0.0644531C0.24222 0.0996094 0.14261 0.199219 0.089876 0.292969C-0.00387397 0.445312 -0.00973334 1.21289 0.00784478 10.4648C0.0137042 15.9727 0.0371417 20.5312 0.0547198 20.5957C0.0722979 20.6543 0.160189 20.7598 0.248079 20.8301C0.406282 20.9473 0.412142 20.9473 13.1035 20.9473C20.0879 20.9473 25.8653 20.9297 25.9473 20.9062C26.0293 20.8887 26.1114 20.8652 26.1348 20.8652C26.1524 20.8594 26.2168 20.7773 26.2637 20.6777C26.3457 20.5078 26.3575 19.459 26.3575 10.5527C26.3575 5.08594 26.3575 0.585938 26.3516 0.556641C26.3457 0.521484 26.3399 0.46875 26.334 0.427734C26.334 0.392578 26.2578 0.28125 26.1641 0.181641L26.0059 0L13.2149 0.00585938C4.78324 0.00585938 0.388704 0.0292969 0.306673 0.0644531ZM3.43558 2.44336L3.45316 3.16406H2.48636H1.51956L1.50199 2.43164L1.48441 1.69922L2.4512 1.71094L3.418 1.72852L3.43558 2.44336ZM7.54886 2.43164V3.16406H6.61722H5.67972L5.66214 2.43164L5.64456 1.69922H6.59964H7.54886V2.43164ZM12.002 2.43164V3.16406H11.0352H10.0684V2.47266C10.0684 2.0918 10.086 1.75781 10.1094 1.74023C10.127 1.7168 10.5664 1.69922 11.0762 1.69922H12.002V2.43164ZM16.4434 2.44336L16.461 3.16406H15.4883H14.5215V2.43164V1.69922L15.4766 1.71094L16.4258 1.72852L16.4434 2.44336ZM20.7325 2.43164V3.16406H19.8008H18.8633L18.8457 2.43164L18.8282 1.69922H19.7832H20.7325V2.43164ZM24.8926 2.43164V3.16406H23.9258H22.959V2.47266C22.959 2.0918 22.9766 1.75781 23 1.74023C23.0176 1.7168 23.4571 1.69922 23.9668 1.69922H24.8926V2.43164ZM12.0723 10.5762L12.0899 15.293H6.78714H1.48441L1.50199 10.5762L1.5137 5.85938H6.78714H12.0606L12.0723 10.5762ZM24.8926 10.5762V15.293L19.6368 15.2812L14.375 15.2637L14.3575 10.5586L14.3457 5.85938H19.6192H24.8926V10.5762ZM7.54886 18.6621V19.3945H6.59964H5.64456V18.6445V17.9004L6.59964 17.918L7.54886 17.9355V18.6621ZM16.4434 18.6504L16.4258 19.3652L15.4766 19.3828L14.5274 19.3945L14.5098 18.6504L14.4922 17.9004L15.4766 17.918L16.461 17.9355L16.4434 18.6504ZM20.7618 18.6328V19.3945H19.8125H18.8575V18.6621V17.9297L19.8125 17.9121C20.334 17.9062 20.7618 17.8887 20.7618 17.8828C20.7618 17.877 20.7618 18.2109 20.7618 18.6328ZM3.43558 18.6445L3.418 19.3652L2.46878 19.3828L1.5137 19.3945V18.6621V17.9297H2.4805H3.45316L3.43558 18.6445ZM12.002 18.6621V19.3945L11.0528 19.3828L10.0977 19.3652L10.0801 18.6445L10.0625 17.9297H11.0352H12.002V18.6621ZM24.8926 18.6621V19.3945L23.9434 19.3828L22.9883 19.3652L22.9707 18.6445L22.9532 17.9297H23.9258H24.8926V18.6621Z" fill="white"/>
</svg>
